<mxfile host="app.diagrams.net" modified="2022-11-04T16:56:06.105Z" agent="5.0 (X11)" etag="0BrOSEXdgS7kdtk4L_D-" version="20.5.1" type="github">
  <diagram id="RTAbEg9A8CjEcCRyueBA" name="Page-1">
    <mxGraphModel dx="1021" dy="6551" grid="1" gridSize="10" guides="1" tooltips="1" connect="1" arrows="1" fold="1" page="1" pageScale="1" pageWidth="800" pageHeight="500" background="none" math="1" shadow="0">
      <root>
        <mxCell id="0" />
        <mxCell id="1" parent="0" />
        <mxCell id="BBF1sI_8vrTofviCWToU-1" value="" style="whiteSpace=wrap;html=1;aspect=fixed;gradientColor=#B0D9B1;gradientDirection=east;" vertex="1" parent="1">
          <mxGeometry x="158" y="-5430" width="310" height="310" as="geometry" />
        </mxCell>
        <mxCell id="BBF1sI_8vrTofviCWToU-2" value="" style="rounded=0;whiteSpace=wrap;html=1;gradientColor=#FFFF99;gradientDirection=radial;" vertex="1" parent="1">
          <mxGeometry x="248" y="-5390" width="200" height="250" as="geometry" />
        </mxCell>
        <mxCell id="BBF1sI_8vrTofviCWToU-3" value="" style="rounded=0;whiteSpace=wrap;html=1;gradientColor=#C2C2C2;" vertex="1" parent="1">
          <mxGeometry x="318" y="-5370" width="120" height="220" as="geometry" />
        </mxCell>
        <mxCell id="BBF1sI_8vrTofviCWToU-4" value="" style="whiteSpace=wrap;html=1;aspect=fixed;" vertex="1" parent="1">
          <mxGeometry x="508" y="-5357" width="73" height="73" as="geometry" />
        </mxCell>
        <mxCell id="BBF1sI_8vrTofviCWToU-5" value="" style="ellipse;whiteSpace=wrap;html=1;aspect=fixed;fillColor=#f8cecc;strokeColor=#b85450;gradientColor=none;" vertex="1" parent="1">
          <mxGeometry x="168" y="-5350" width="50" height="50" as="geometry" />
        </mxCell>
        <mxCell id="BBF1sI_8vrTofviCWToU-6" value="" style="ellipse;whiteSpace=wrap;html=1;aspect=fixed;fillColor=#f8cecc;strokeColor=#b85450;" vertex="1" parent="1">
          <mxGeometry x="258" y="-5350" width="50" height="50" as="geometry" />
        </mxCell>
        <mxCell id="BBF1sI_8vrTofviCWToU-7" value="" style="ellipse;whiteSpace=wrap;html=1;aspect=fixed;fillColor=#f8cecc;strokeColor=#b85450;" vertex="1" parent="1">
          <mxGeometry x="58" y="-5350" width="50" height="50" as="geometry" />
        </mxCell>
        <mxCell id="BBF1sI_8vrTofviCWToU-8" value="" style="ellipse;whiteSpace=wrap;html=1;aspect=fixed;fillColor=#f8cecc;strokeColor=#b85450;gradientColor=none;gradientDirection=north;" vertex="1" parent="1">
          <mxGeometry x="353" y="-5350" width="50" height="50" as="geometry" />
        </mxCell>
        <mxCell id="BBF1sI_8vrTofviCWToU-9" value="" style="ellipse;whiteSpace=wrap;html=1;aspect=fixed;fillColor=#f8cecc;strokeColor=#b85450;" vertex="1" parent="1">
          <mxGeometry x="521" y="-5350" width="50" height="50" as="geometry" />
        </mxCell>
        <mxCell id="BBF1sI_8vrTofviCWToU-10" value="" style="ellipse;whiteSpace=wrap;html=1;aspect=fixed;fillColor=#f8cecc;strokeColor=#b85450;" vertex="1" parent="1">
          <mxGeometry x="353" y="-5250" width="50" height="50" as="geometry" />
        </mxCell>
        <mxCell id="BBF1sI_8vrTofviCWToU-11" value="" style="ellipse;whiteSpace=wrap;html=1;aspect=fixed;fillColor=#f8cecc;strokeColor=#b85450;" vertex="1" parent="1">
          <mxGeometry x="521" y="-5230" width="50" height="50" as="geometry" />
        </mxCell>
        <mxCell id="BBF1sI_8vrTofviCWToU-12" value="" style="ellipse;whiteSpace=wrap;html=1;aspect=fixed;fillColor=#f8cecc;strokeColor=#b85450;" vertex="1" parent="1">
          <mxGeometry x="353" y="-5070" width="50" height="50" as="geometry" />
        </mxCell>
        <mxCell id="BBF1sI_8vrTofviCWToU-13" value="" style="ellipse;whiteSpace=wrap;html=1;aspect=fixed;fillColor=#f8cecc;strokeColor=#b85450;" vertex="1" parent="1">
          <mxGeometry x="228" y="-5070" width="50" height="50" as="geometry" />
        </mxCell>
        <mxCell id="BBF1sI_8vrTofviCWToU-14" value="" style="ellipse;whiteSpace=wrap;html=1;aspect=fixed;fillColor=#f8cecc;strokeColor=#b85450;" vertex="1" parent="1">
          <mxGeometry x="353" y="-5485" width="40" height="40" as="geometry" />
        </mxCell>
        <mxCell id="BBF1sI_8vrTofviCWToU-15" value="" style="ellipse;whiteSpace=wrap;html=1;aspect=fixed;fillColor=#f8cecc;strokeColor=#b85450;" vertex="1" parent="1">
          <mxGeometry x="225.5" y="-5485" width="40" height="40" as="geometry" />
        </mxCell>
        <mxCell id="BBF1sI_8vrTofviCWToU-16" value="&lt;font style=&quot;font-size: 24px;&quot;&gt;&lt;br&gt;&lt;br&gt;&lt;br&gt;&lt;/font&gt;	&lt;font style=&quot;font-size: 24px;&quot;&gt;&lt;br&gt;&lt;/font&gt;	&lt;font style=&quot;font-size: 24px;&quot;&gt;&lt;br&gt;&lt;/font&gt;	&lt;font style=&quot;font-size: 24px;&quot;&gt;&lt;br&gt;&lt;/font&gt;	&lt;font style=&quot;font-size: 24px;&quot;&gt;&lt;br&gt;&lt;br&gt;&lt;/font&gt;&lt;p style=&quot;line-height: 100%; margin-bottom: 0in; font-size: 24px;&quot;&gt;&lt;font style=&quot;font-size: 24px;&quot;&gt;&lt;br&gt;&lt;font style=&quot;font-size: 24px;&quot;&gt;&lt;font style=&quot;font-size: 24px;&quot; face=&quot;Liberation Serif, serif&quot;&gt;ϒ&lt;/font&gt;&lt;/font&gt;&lt;/font&gt;&lt;/p&gt;&lt;font style=&quot;font-size: 24px;&quot;&gt;&lt;br&gt;&lt;br&gt;&lt;/font&gt;" style="text;html=1;strokeColor=none;fillColor=none;align=center;verticalAlign=middle;whiteSpace=wrap;rounded=0;fontSize=22;" vertex="1" parent="1">
          <mxGeometry x="160.5" y="-5460" width="65" height="40" as="geometry" />
        </mxCell>
        <mxCell id="BBF1sI_8vrTofviCWToU-17" value="&lt;p style=&quot;line-height: 100%; margin-bottom: 0in; font-size: 24px;&quot;&gt;&lt;font style=&quot;font-size: 24px;&quot;&gt;&lt;br&gt;&lt;font style=&quot;font-size: 24px;&quot;&gt;&lt;font style=&quot;font-size: 24px;&quot; face=&quot;Liberation Serif, serif&quot;&gt;β&lt;/font&gt;&lt;/font&gt;&lt;/font&gt;&lt;/p&gt;&lt;font style=&quot;font-size: 24px;&quot;&gt;&lt;br&gt;&lt;br&gt;&lt;/font&gt;" style="text;html=1;strokeColor=none;fillColor=none;align=center;verticalAlign=middle;whiteSpace=wrap;rounded=0;fontSize=22;" vertex="1" parent="1">
          <mxGeometry x="213" y="-5070" width="80" height="50" as="geometry" />
        </mxCell>
        <mxCell id="BBF1sI_8vrTofviCWToU-18" value="&lt;p style=&quot;line-height: 100%; margin-bottom: 0in; font-size: 25px;&quot;&gt;&lt;font style=&quot;font-size: 25px;&quot;&gt;&lt;br&gt;&lt;font style=&quot;font-size: 25px;&quot;&gt;&lt;font style=&quot;font-size: 25px;&quot; face=&quot;Liberation Serif, serif&quot;&gt;ω&lt;/font&gt;&lt;/font&gt;&lt;/font&gt;&lt;/p&gt;&lt;font style=&quot;font-size: 25px;&quot;&gt;&lt;br&gt;&lt;br&gt;&lt;/font&gt;" style="text;html=1;strokeColor=none;fillColor=none;align=center;verticalAlign=middle;whiteSpace=wrap;rounded=0;fontSize=22;strokeWidth=2;" vertex="1" parent="1">
          <mxGeometry x="348" y="-5060" width="60" height="30" as="geometry" />
        </mxCell>
        <mxCell id="BBF1sI_8vrTofviCWToU-19" value="&lt;p style=&quot;line-height: 100%; margin-bottom: 0in; font-size: 25px;&quot;&gt;&lt;font style=&quot;font-size: 25px;&quot;&gt;&lt;br&gt;&lt;font style=&quot;font-size: 25px;&quot;&gt;&lt;font style=&quot;font-size: 25px;&quot; face=&quot;Liberation Serif, serif&quot;&gt;α&lt;/font&gt;&lt;/font&gt;&lt;/font&gt;&lt;/p&gt;&lt;font style=&quot;font-size: 25px;&quot;&gt;&lt;br&gt;&lt;br&gt;&lt;/font&gt;" style="text;html=1;strokeColor=none;fillColor=none;align=center;verticalAlign=middle;whiteSpace=wrap;rounded=0;strokeWidth=2;fontSize=24;" vertex="1" parent="1">
          <mxGeometry x="516" y="-5220" width="60" height="30" as="geometry" />
        </mxCell>
        <mxCell id="BBF1sI_8vrTofviCWToU-20" value="&lt;p style=&quot;line-height: 100%; margin-bottom: 0in; font-size: 21px;&quot;&gt;&lt;font style=&quot;font-size: 21px;&quot;&gt;&lt;br&gt;&lt;font style=&quot;font-size: 21px;&quot;&gt;&lt;font style=&quot;font-size: 21px;&quot; face=&quot;Liberation Serif, serif&quot;&gt;ζ&lt;/font&gt;&lt;sub&gt;&lt;font style=&quot;font-size: 21px;&quot; face=&quot;Liberation Serif, serif&quot;&gt;b&lt;/font&gt;&lt;/sub&gt;&lt;/font&gt;&lt;/font&gt;&lt;/p&gt;&lt;font style=&quot;font-size: 21px;&quot;&gt;&lt;br&gt;&lt;br&gt;&lt;/font&gt;" style="text;html=1;strokeColor=none;fillColor=none;align=center;verticalAlign=middle;whiteSpace=wrap;rounded=0;strokeWidth=2;fontSize=22;" vertex="1" parent="1">
          <mxGeometry x="343" y="-5475" width="60" height="30" as="geometry" />
        </mxCell>
        <mxCell id="BBF1sI_8vrTofviCWToU-21" value="&lt;p style=&quot;line-height: 100%; margin-bottom: 0in; font-size: 23px;&quot;&gt;&lt;font style=&quot;font-size: 23px;&quot;&gt;&lt;br&gt;&lt;font style=&quot;font-size: 23px;&quot;&gt;&lt;font style=&quot;font-size: 23px;&quot; face=&quot;Liberation Serif, serif&quot;&gt;ζ&lt;/font&gt;&lt;sub&gt;&lt;font style=&quot;font-size: 23px;&quot; face=&quot;Liberation Serif, serif&quot;&gt;k&lt;/font&gt;&lt;/sub&gt;&lt;/font&gt;&lt;/font&gt;&lt;/p&gt;&lt;font style=&quot;font-size: 23px;&quot;&gt;&lt;br&gt;&lt;br&gt;&lt;/font&gt;" style="text;html=1;strokeColor=none;fillColor=none;align=center;verticalAlign=middle;whiteSpace=wrap;rounded=0;strokeWidth=2;fontSize=21;" vertex="1" parent="1">
          <mxGeometry x="516" y="-5340" width="60" height="30" as="geometry" />
        </mxCell>
        <mxCell id="BBF1sI_8vrTofviCWToU-22" value="&lt;p style=&quot;line-height: 100%; margin-bottom: 0in; font-size: 25px;&quot;&gt;&lt;font style=&quot;font-size: 25px;&quot;&gt;&lt;br&gt;&lt;font style=&quot;font-size: 25px;&quot;&gt;&lt;font style=&quot;font-size: 25px;&quot; face=&quot;Liberation Serif, serif&quot;&gt;φ&lt;/font&gt;&lt;/font&gt;&lt;/font&gt;&lt;/p&gt;&lt;font style=&quot;font-size: 25px;&quot;&gt;&lt;br&gt;&lt;br&gt;&lt;/font&gt;" style="text;html=1;strokeColor=none;fillColor=none;align=center;verticalAlign=middle;whiteSpace=wrap;rounded=0;strokeWidth=2;fontSize=23;" vertex="1" parent="1">
          <mxGeometry x="218" y="-5480" width="60" height="30" as="geometry" />
        </mxCell>
        <mxCell id="BBF1sI_8vrTofviCWToU-23" value="&lt;p style=&quot;line-height: 100%; margin-bottom: 0in; font-size: 26px;&quot;&gt;&lt;font style=&quot;font-size: 26px;&quot;&gt;&lt;br&gt;&lt;font style=&quot;font-size: 26px;&quot;&gt;&lt;font style=&quot;font-size: 26px;&quot; face=&quot;Liberation Serif, serif&quot;&gt;λ&lt;/font&gt;&lt;sub&gt;&lt;font style=&quot;font-size: 26px;&quot; face=&quot;Liberation Serif, serif&quot;&gt;a&lt;/font&gt;&lt;/sub&gt;&lt;/font&gt;&lt;/font&gt;&lt;/p&gt;&lt;font style=&quot;font-size: 26px;&quot;&gt;&lt;br&gt;&lt;br&gt;&lt;/font&gt;" style="text;html=1;strokeColor=none;fillColor=none;align=center;verticalAlign=middle;whiteSpace=wrap;rounded=0;strokeWidth=2;fontSize=25;" vertex="1" parent="1">
          <mxGeometry x="58" y="-5330" width="60" height="30" as="geometry" />
        </mxCell>
        <mxCell id="BBF1sI_8vrTofviCWToU-24" value="W" style="text;html=1;strokeColor=none;fillColor=none;align=center;verticalAlign=middle;whiteSpace=wrap;rounded=0;strokeWidth=2;fontSize=26;" vertex="1" parent="1">
          <mxGeometry x="348" y="-5340" width="60" height="30" as="geometry" />
        </mxCell>
        <mxCell id="BBF1sI_8vrTofviCWToU-25" value="Z" style="text;html=1;strokeColor=none;fillColor=none;align=center;verticalAlign=middle;whiteSpace=wrap;rounded=0;strokeWidth=2;fontSize=26;" vertex="1" parent="1">
          <mxGeometry x="253" y="-5340" width="60" height="30" as="geometry" />
        </mxCell>
        <mxCell id="BBF1sI_8vrTofviCWToU-26" value="d" style="text;html=1;strokeColor=none;fillColor=none;align=center;verticalAlign=middle;whiteSpace=wrap;rounded=0;strokeWidth=2;fontSize=26;" vertex="1" parent="1">
          <mxGeometry x="348" y="-5240" width="60" height="30" as="geometry" />
        </mxCell>
        <mxCell id="BBF1sI_8vrTofviCWToU-27" value="&lt;p style=&quot;line-height: 100%; margin-bottom: 0in; font-size: 27px;&quot;&gt;&lt;font style=&quot;font-size: 27px;&quot;&gt;&lt;br&gt;&lt;font style=&quot;font-size: 27px;&quot;&gt;&lt;font style=&quot;font-size: 27px;&quot; face=&quot;Liberation Serif, serif&quot;&gt;Ν&lt;/font&gt;&lt;sub&gt;&lt;font style=&quot;font-size: 27px;&quot; face=&quot;Liberation Serif, serif&quot;&gt;u&lt;/font&gt;&lt;/sub&gt;&lt;/font&gt;&lt;/font&gt;&lt;/p&gt;&lt;font style=&quot;font-size: 27px;&quot;&gt;&lt;br&gt;&lt;br&gt;&lt;/font&gt;" style="text;html=1;strokeColor=none;fillColor=none;align=center;verticalAlign=middle;whiteSpace=wrap;rounded=0;strokeWidth=2;fontSize=26;" vertex="1" parent="1">
          <mxGeometry x="253" y="-5175" width="60" height="30" as="geometry" />
        </mxCell>
        <mxCell id="BBF1sI_8vrTofviCWToU-28" value="&lt;p style=&quot;line-height: 100%; margin-bottom: 0in; font-size: 26px;&quot;&gt;&lt;font style=&quot;font-size: 26px;&quot;&gt;&lt;br&gt;&lt;font style=&quot;font-size: 26px;&quot;&gt;&lt;font style=&quot;font-size: 26px;&quot; face=&quot;Liberation Serif, serif&quot;&gt;Ν&lt;/font&gt;&lt;sub&gt;&lt;font style=&quot;font-size: 26px;&quot; face=&quot;Liberation Serif, serif&quot;&gt;u,s&lt;/font&gt;&lt;/sub&gt;&lt;/font&gt;&lt;/font&gt;&lt;/p&gt;&lt;font style=&quot;font-size: 26px;&quot;&gt;&lt;br&gt;&lt;br&gt;&lt;/font&gt;" style="text;html=1;strokeColor=none;fillColor=none;align=center;verticalAlign=middle;whiteSpace=wrap;rounded=0;strokeWidth=2;fontSize=27;" vertex="1" parent="1">
          <mxGeometry x="388" y="-5170" width="40" height="20" as="geometry" />
        </mxCell>
        <mxCell id="BBF1sI_8vrTofviCWToU-29" value="" style="endArrow=classic;html=1;rounded=0;fontSize=26;entryX=0;entryY=0.5;entryDx=0;entryDy=0;" edge="1" parent="1" target="BBF1sI_8vrTofviCWToU-5">
          <mxGeometry width="50" height="50" relative="1" as="geometry">
            <mxPoint x="108" y="-5325" as="sourcePoint" />
            <mxPoint x="158" y="-5370" as="targetPoint" />
          </mxGeometry>
        </mxCell>
        <mxCell id="BBF1sI_8vrTofviCWToU-30" value="" style="endArrow=classic;html=1;rounded=0;fontSize=26;entryX=0;entryY=0.5;entryDx=0;entryDy=0;exitX=1;exitY=0.5;exitDx=0;exitDy=0;" edge="1" parent="1" source="BBF1sI_8vrTofviCWToU-5" target="BBF1sI_8vrTofviCWToU-25">
          <mxGeometry width="50" height="50" relative="1" as="geometry">
            <mxPoint x="218" y="-5320" as="sourcePoint" />
            <mxPoint x="268" y="-5370" as="targetPoint" />
          </mxGeometry>
        </mxCell>
        <mxCell id="BBF1sI_8vrTofviCWToU-31" value="" style="endArrow=classic;html=1;rounded=0;fontSize=26;" edge="1" parent="1">
          <mxGeometry width="50" height="50" relative="1" as="geometry">
            <mxPoint x="308" y="-5327.5" as="sourcePoint" />
            <mxPoint x="358" y="-5327" as="targetPoint" />
          </mxGeometry>
        </mxCell>
        <mxCell id="BBF1sI_8vrTofviCWToU-32" value="" style="endArrow=classic;html=1;rounded=0;fontSize=26;entryX=0.167;entryY=0.667;entryDx=0;entryDy=0;entryPerimeter=0;" edge="1" parent="1" target="BBF1sI_8vrTofviCWToU-18">
          <mxGeometry width="50" height="50" relative="1" as="geometry">
            <mxPoint x="278" y="-5040" as="sourcePoint" />
            <mxPoint x="328" y="-5090" as="targetPoint" />
          </mxGeometry>
        </mxCell>
        <mxCell id="BBF1sI_8vrTofviCWToU-33" value="" style="endArrow=classic;html=1;rounded=0;fontSize=26;entryX=0.5;entryY=1;entryDx=0;entryDy=0;" edge="1" parent="1" target="BBF1sI_8vrTofviCWToU-10">
          <mxGeometry width="50" height="50" relative="1" as="geometry">
            <mxPoint x="378" y="-5070" as="sourcePoint" />
            <mxPoint x="428" y="-5120" as="targetPoint" />
          </mxGeometry>
        </mxCell>
        <mxCell id="BBF1sI_8vrTofviCWToU-34" value="" style="endArrow=classic;html=1;rounded=0;fontSize=26;entryX=0.5;entryY=1;entryDx=0;entryDy=0;" edge="1" parent="1" target="BBF1sI_8vrTofviCWToU-8">
          <mxGeometry width="50" height="50" relative="1" as="geometry">
            <mxPoint x="378" y="-5250" as="sourcePoint" />
            <mxPoint x="428" y="-5300" as="targetPoint" />
          </mxGeometry>
        </mxCell>
        <mxCell id="BBF1sI_8vrTofviCWToU-35" value="" style="endArrow=classic;html=1;rounded=0;fontSize=26;entryX=0.5;entryY=1;entryDx=0;entryDy=0;" edge="1" parent="1" target="BBF1sI_8vrTofviCWToU-9">
          <mxGeometry width="50" height="50" relative="1" as="geometry">
            <mxPoint x="545.9999999999998" y="-5230" as="sourcePoint" />
            <mxPoint x="546" y="-5290" as="targetPoint" />
          </mxGeometry>
        </mxCell>
        <mxCell id="BBF1sI_8vrTofviCWToU-36" value="" style="endArrow=classic;html=1;rounded=0;fontSize=26;entryX=0.833;entryY=0.333;entryDx=0;entryDy=0;entryPerimeter=0;" edge="1" parent="1">
          <mxGeometry width="50" height="50" relative="1" as="geometry">
            <mxPoint x="520.9999999999998" y="-5330" as="sourcePoint" />
            <mxPoint x="400.98" y="-5330.01" as="targetPoint" />
          </mxGeometry>
        </mxCell>
        <mxCell id="BBF1sI_8vrTofviCWToU-37" value="" style="endArrow=classic;html=1;rounded=0;fontSize=26;entryX=0.25;entryY=0.5;entryDx=0;entryDy=0;entryPerimeter=0;" edge="1" parent="1" target="BBF1sI_8vrTofviCWToU-20">
          <mxGeometry width="50" height="50" relative="1" as="geometry">
            <mxPoint x="265.5" y="-5460" as="sourcePoint" />
            <mxPoint x="315.5" y="-5510" as="targetPoint" />
          </mxGeometry>
        </mxCell>
        <mxCell id="BBF1sI_8vrTofviCWToU-38" value="" style="endArrow=classic;html=1;rounded=0;fontSize=26;exitX=0.5;exitY=1;exitDx=0;exitDy=0;entryX=0.41;entryY=0.009;entryDx=0;entryDy=0;entryPerimeter=0;" edge="1" parent="1" source="BBF1sI_8vrTofviCWToU-20" target="BBF1sI_8vrTofviCWToU-8">
          <mxGeometry width="50" height="50" relative="1" as="geometry">
            <mxPoint x="358" y="-5300" as="sourcePoint" />
            <mxPoint x="408" y="-5350" as="targetPoint" />
          </mxGeometry>
        </mxCell>
        <mxCell id="BBF1sI_8vrTofviCWToU-39" value="S" style="text;html=1;strokeColor=none;fillColor=none;align=center;verticalAlign=middle;whiteSpace=wrap;rounded=0;strokeWidth=2;fontSize=26;" vertex="1" parent="1">
          <mxGeometry x="158" y="-5420" width="60" height="30" as="geometry" />
        </mxCell>
        <mxCell id="BBF1sI_8vrTofviCWToU-40" value="&lt;font size=&quot;1&quot;&gt;&lt;b style=&quot;font-size: 13px;&quot;&gt;T&lt;/b&gt;&lt;/font&gt;" style="text;html=1;strokeColor=none;fillColor=none;align=center;verticalAlign=middle;whiteSpace=wrap;rounded=0;" vertex="1" parent="1">
          <mxGeometry x="488" y="-5309" width="60" height="30" as="geometry" />
        </mxCell>
      </root>
    </mxGraphModel>
  </diagram>
</mxfile>
